PathFileType	4	(X/Y/Z)	8_coords_data.trc
DataRate	CameraRate	NumFrames	NumMarkers	Units	OrigDataRate	OrigDataStartFrame	OrigNumFrames
30.0	30.0	6	21	m	30.0	1	53
Frame#	Time	THUMB_TIP	THUMB_IP	THUMB_MCP	THUMB_CMC	INDEX_TIP	INDEX_DIP	INDEX_PIP	INDEX_MCP	MIDDLE_TIP	MIDDLE_DIP	MIDDLE_PIP	MIDDLE_MCP	RING_TIP	RING_DIP	RING_PIP	RING_MCP	PINKY_TIP	PINKY_DIP	PINKY_PIP	PINKY_MCP	WRIST
X1	Y1	Z1	X2	Y2	Z2	X3	Y3	Z3	X4	Y4	Z4	X5	Y5	Z5	X6	Y6	Z6	X7	Y7	Z7	X8	Y8	Z8	X9	Y9	Z9	X10	Y10	Z10	X11	Y11	Z11	X12	Y12	Z12	X13	Y13	Z13	X14	Y14	Z14	X15	Y15	Z15	X16	Y16	Z16	X17	Y17	Z17	X18	Y18	Z18	X19	Y19	Z19	X20	Y20	Z20	X21	Y21	Z21
0	0.0	-0.044855300903320315	-0.07326429748535156	0.955198974609375	-0.0459093017578125	-0.0633473014831543	0.9806829833984375	-0.046416900634765626	-0.04348720169067383	1.0015900268554687	-0.049414798736572264	-0.01456719970703125	1.0188900146484374	-0.04378580093383789	-0.029657199859619142	0.9927520141601562	-0.02959869956970215	-0.031081600189208983	0.9752169799804687	-0.036441299438476564	-0.03833100128173828	0.9547670288085938	-0.07320690155029297	-0.038292701721191404	0.9674509887695313	-0.041810798645019534	-0.014737199783325196	0.9991199951171875	-0.030770999908447266	-0.016319999694824217	0.9781929931640625	-0.033705101013183594	-0.019393699645996094	0.952198974609375	-0.0757074966430664	-0.017999399185180665	0.9618049926757812	-0.04453990173339844	-0.002851769924163818	0.9987570190429688	-0.03281529998779297	-0.0012999399900436401	0.9797340087890625	-0.032233600616455076	-0.00053039801120758	0.9559240112304688	-0.06958769989013672	0.00106656002998352	0.960177001953125	-0.04691740036010742	0.00966306972503662	0.9943629760742188	-0.03518650054931641	0.011340999603271484	0.9790130004882812	-0.03682400131225586	0.01527429962158203	0.9613410034179688	-0.06432820129394531	0.019613399505615234	0.9636320190429688	-0.06836489868164063	0.009582559585571289	1.0313299560546876
1	0.03333333333333333	-0.044956501007080076	-0.0739365005493164	0.9550800170898438	-0.046430099487304685	-0.06235599899291992	0.9792479858398437	-0.04725230026245117	-0.04597610092163086	0.9999450073242188	-0.04738999938964844	-0.017359399795532228	1.0144600219726563	-0.04187969970703125	-0.029310699462890624	0.9909959716796874	-0.03130249977111817	-0.031850700378417966	0.9760130004882812	-0.03630659866333008	-0.038329299926757814	0.95543798828125	-0.07282379913330078	-0.0387234001159668	0.9664310302734375	-0.041909500122070314	-0.017191999435424803	0.9945239868164063	-0.030976499557495117	-0.01624209976196289	0.9781119995117188	-0.0341239013671875	-0.019581600189208983	0.9521510009765625	-0.07411720275878907	-0.01837540054321289	0.9611220092773437	-0.045967601776123045	-0.002886559963226318	0.9960670166015625	-0.033398799896240235	-0.00095948302745819	0.979594970703125	-0.03295439910888672	-0.000378679990768432	0.9557960205078125	-0.06986239624023438	0.000802699983119964	0.9618330078125	-0.047198699951171874	0.010008600234985352	0.9925490112304688	-0.03484130096435547	0.012346400260925292	0.9791939697265625	-0.0370192985534668	0.015223500251770019	0.9626740112304687	-0.06470149993896485	0.018696300506591795	0.9656160278320313	-0.06753520202636719	0.00874468994140625	1.032199951171875
2	0.06666666666666667	-0.04468560028076172	-0.07411329650878906	0.9549299926757813	-0.04620940017700195	-0.06254209899902344	0.9790230102539063	-0.04701520156860352	-0.046122600555419925	0.9996890258789063	-0.047241298675537106	-0.0174906005859375	1.01422998046875	-0.04152780151367187	-0.029361099243164063	0.9906240234375	-0.03125149917602539	-0.031999500274658206	0.9757830200195312	-0.03611230087280273	-0.03844950103759766	0.9552000122070312	-0.07263670349121094	-0.03893980026245117	0.966208984375	-0.04167689895629883	-0.017268600463867186	0.9942960205078125	-0.03091130065917969	-0.01632480049133301	0.9778259887695312	-0.033962600708007815	-0.019677499771118163	0.9519390258789062	-0.07397589874267578	-0.018567499160766603	0.9608489990234375	-0.04587820053100586	-0.003017970085144043	0.9959149780273437	-0.033335399627685544	-0.001082739949226379	0.9794310302734375	-0.03282619857788086	-0.0004929099977016441	0.9555809936523437	-0.06974179840087891	0.000626658976078033	0.9615980224609375	-0.04709930038452149	0.009859970092773437	0.9923519897460937	-0.03462599945068359	0.012192299842834473	0.9789320068359375	-0.036945201873779296	0.015116000175476074	0.9624819946289063	-0.06457019805908203	0.018526500701904296	0.96527099609375	-0.06750399780273438	0.008579440116882324	1.031949951171875
3	0.1	-0.0448135986328125	-0.07444539642333985	0.9547780151367188	-0.04627859878540039	-0.06272900009155273	0.97885302734375	-0.04706940078735351	-0.04634270095825195	0.9995230102539062	-0.04722620010375977	-0.01772909927368164	1.0140700073242188	-0.04133359909057617	-0.029562799453735352	0.99035498046875	-0.031168699264526367	-0.032123401641845704	0.9754929809570313	-0.03597760009765625	-0.0385702018737793	0.954969970703125	-0.07254830169677734	-0.03910340118408203	0.9659810180664062	-0.041607101440429686	-0.017485599517822265	0.9940189819335937	-0.030762399673461914	-0.016505500793457032	0.9777689819335937	-0.03384870147705078	-0.019794700622558593	0.9517479858398438	-0.07383480072021484	-0.018736400604248048	0.9606430053710937	-0.04578129959106445	-0.003239729881286621	0.9956649780273438	-0.03321110153198242	-0.0012625399827957148	0.9792329711914063	-0.03272079849243164	-0.000593877017498016	0.9554019775390625	-0.06960700225830078	0.000498757004737854	0.9614340209960938	-0.04693470001220703	0.009633489608764648	0.9922150268554687	-0.0344567985534668	0.012015500068664552	0.9788070068359375	-0.03679669952392578	0.015005399703979492	0.9623610229492188	-0.06447850036621093	0.018371999740600584	0.9651599731445313	-0.06749500274658203	0.008382949829101562	1.0318299560546875
4	0.13333333333333333	-0.044424999237060545	-0.07465630340576172	0.95468798828125	-0.04600590133666992	-0.06291709899902344	0.9787139892578125	-0.04691049957275391	-0.04646129989624023	0.9993070068359375	-0.04716699981689453	-0.017915199279785157	1.0139500122070313	-0.041509700775146485	-0.029754800796508787	0.9901290283203125	-0.03094770050048828	-0.03227539825439453	0.9753200073242188	-0.035738399505615234	-0.03862220001220703	0.9548699951171875	-0.07230149841308593	-0.039230701446533206	0.965718017578125	-0.0416072998046875	-0.017703800201416015	0.9938300170898438	-0.030676300048828126	-0.016608999252319335	0.9775750122070312	-0.03362939834594727	-0.019803800582885743	0.951593994140625	-0.07365730285644531	-0.01883329963684082	0.9604140014648438	-0.045714401245117185	-0.00341523003578186	0.9954879760742188	-0.03308449935913086	-0.0013434499502182	0.9791069946289063	-0.03257320022583008	-0.0006198139786720271	0.9553309936523438	-0.06942510223388672	0.000378066003322601	0.9611240234375	-0.04690349960327148	0.009488579750061035	0.9920880126953125	-0.03436349868774414	0.011921999931335449	0.9786900024414062	-0.03667839813232422	0.014960499763488769	0.962405029296875	-0.06442839813232422	0.018262399673461913	0.9650789794921875	-0.06764689636230468	0.00811534023284912	1.031699951171875
5	0.16666666666666666	-0.0441260986328125	-0.07465049743652344	0.9545560302734375	-0.0458051986694336	-0.0630281982421875	0.9786510009765625	-0.04682550048828125	-0.046597698211669925	0.9992379760742187	-0.0472047004699707	-0.018006399154663087	1.01377001953125	-0.04143130111694336	-0.02980590057373047	0.9903579711914062	-0.03094300079345703	-0.03238970184326172	0.9753489990234375	-0.035786998748779296	-0.03875590133666992	0.954677001953125	-0.07238240051269532	-0.03943299865722656	0.9656119995117187	-0.041636199951171876	-0.01779010009765625	0.993614013671875	-0.030777599334716795	-0.016725299835205078	0.9774310302734375	-0.03370880126953125	-0.019966100692749022	0.9514650268554687	-0.0737156982421875	-0.01906559944152832	0.9602429809570312	-0.04580810165405273	-0.00346887993812561	0.9953909912109375	-0.03321020126342773	-0.0014427399635314941	0.9790230102539063	-0.03267829895019531	-0.0007991179823875421	0.9551909790039063	-0.0695655975341797	0.00017238700389862003	0.9611119995117188	-0.04707170104980469	0.009388070106506347	0.9919569702148437	-0.03449670028686523	0.011817500114440918	0.9785900268554687	-0.036814098358154294	0.01481470012664795	0.9623150024414062	-0.06453569793701172	0.01806949996948242	0.96489599609375	-0.06762940216064453	0.008021320343017578	1.031510009765625
